<?xml version="1.0" standalone="no"?>
<!DOCTYPE svg PUBLIC "-//W3C//DTD SVG 20010904//EN"
 "http://www.w3.org/TR/2001/REC-SVG-20010904/DTD/svg10.dtd">
<svg version="1.0" xmlns="http://www.w3.org/2000/svg"
 width="1200.000000pt" height="1200.000000pt" viewBox="0 0 1200.000000 1200.000000"
 preserveAspectRatio="xMidYMid meet">
<metadata>
Created by potrace 1.14, written by Peter Selinger 2001-2017
</metadata>
<g transform="translate(0.000000,1200.000000) scale(0.100000,-0.100000)"
fill="#000000" stroke="none">
<path d="M0 6000 l0 -6000 6000 0 6000 0 0 6000 0 6000 -6000 0 -6000 0 0
-6000z m4698 1970 l952 -395 0 -80 0 -80 -957 319 -958 319 -950 -316 c-523
-174 -953 -317 -958 -317 -4 0 -7 35 -7 78 l0 77 953 397 c523 218 957 396
963 395 6 -1 439 -180 962 -397z m5282 -1515 l0 -1885 -1890 0 -1890 0 0 1885
0 1885 1890 0 1890 0 0 -1885z m-6340 1100 c0 -3 -11 -27 -24 -53 -77 -153
-39 -342 93 -464 120 -112 282 -135 439 -63 l55 25 -7 -30 c-11 -58 -61 -145
-118 -206 -247 -264 -683 -164 -799 183 -18 54 -21 82 -17 166 3 93 7 109 39
177 43 89 88 143 161 193 61 42 178 89 178 72z m-845 -1289 c93 -44 135 -112
135 -219 0 -53 -5 -71 -32 -117 -100 -164 -339 -150 -419 25 -23 50 -25 142
-3 193 33 81 127 142 219 142 32 0 68 -9 100 -24z m1240 -9 c66 -14 157 -37
203 -52 94 -30 646 -264 707 -300 67 -39 152 -132 190 -208 l35 -70 0 -143 0
-144 -1222 0 c-1203 0 -1224 0 -1256 20 -94 58 -98 206 -5 267 23 15 56 19
218 23 l190 5 5 205 c6 239 14 265 105 348 86 79 104 82 430 78 254 -3 291 -6
400 -29z m-1735 -607 l0 -480 1595 0 1595 0 0 -315 0 -315 -160 0 -160 0 0
160 0 160 -1435 0 -1435 0 0 -160 0 -160 -160 0 -160 0 0 795 0 795 160 0 160
0 0 -480z m1258 -1644 c20 -1 22 -6 22 -54 l0 -54 -33 44 c-58 76 -122 87
-156 26 -14 -24 -14 -28 3 -47 10 -11 47 -30 82 -41 36 -12 77 -33 93 -46 51
-43 51 -133 -1 -184 -36 -36 -84 -46 -157 -32 -34 6 -60 6 -67 1 -8 -7 -13 8
-16 53 -6 70 -2 83 14 53 21 -37 84 -94 113 -101 18 -4 37 -2 53 7 73 41 50
91 -58 131 -93 34 -120 62 -120 124 0 94 54 140 150 128 30 -3 65 -7 78 -8z
m3575 2 c2 -7 33 -92 67 -188 34 -96 70 -181 78 -187 13 -11 -2 -13 -79 -12
-52 1 -84 4 -71 6 24 5 24 4 -3 83 -12 35 -13 35 -70 35 -57 0 -58 0 -70 -35
-27 -79 -27 -78 -3 -83 13 -2 1 -5 -27 -5 -36 -1 -44 2 -30 8 15 6 38 58 89
199 62 172 71 191 91 191 13 0 25 -6 28 -12z m3029 -1 c12 -1 18 -15 23 -55 4
-30 5 -56 2 -58 -3 -3 -18 14 -33 37 -83 122 -163 95 -178 -59 -12 -132 20
-242 73 -250 39 -6 51 15 51 89 0 62 -2 68 -22 72 -13 2 15 5 62 5 47 0 79 -2
73 -5 -9 -3 -13 -30 -13 -84 0 -51 -4 -78 -10 -74 -6 3 -43 1 -84 -6 -59 -10
-82 -10 -120 1 -169 47 -167 336 3 391 14 5 55 6 91 3 36 -3 72 -7 82 -7z
m-8080 -7 c44 -13 58 -34 58 -89 0 -47 -26 -81 -62 -82 -22 0 -22 -1 -3 -9 36
-14 50 -41 55 -108 5 -71 22 -90 38 -45 9 25 11 26 11 6 1 -13 -9 -33 -20 -44
-18 -18 -30 -20 -67 -16 -58 6 -72 25 -72 98 0 78 -13 109 -45 109 -25 0 -25
0 -25 -94 0 -90 1 -95 23 -99 12 -2 -23 -4 -78 -4 -55 0 -90 2 -77 4 22 4 22
6 22 188 0 182 0 184 -22 188 -13 2 33 5 102 6 69 0 142 -4 162 -9z m603 -41
c8 -60 2 -71 -18 -32 -23 44 -53 66 -94 67 l-38 1 -3 -79 c-2 -44 1 -83 6 -88
15 -15 58 12 75 45 15 31 16 30 16 -58 -1 -86 -1 -89 -15 -58 -14 33 -40 53
-68 53 -13 0 -16 -15 -16 -85 0 -100 6 -107 75 -80 33 12 51 28 70 58 l25 42
0 -62 0 -63 -157 1 c-87 1 -150 3 -140 6 15 4 17 22 17 188 0 166 -2 184 -17
188 -10 3 48 5 129 6 l146 1 7 -51z m403 44 c-16 -4 -18 -22 -18 -188 0 -166
2 -184 18 -188 9 -3 -23 -5 -73 -5 -49 0 -82 2 -72 5 15 4 17 22 17 188 0 166
-2 184 -17 188 -10 3 23 5 72 5 50 0 82 -2 73 -5z m1032 -50 l0 -58 -25 42
c-24 40 -63 63 -106 63 -17 0 -19 -9 -19 -91 0 -89 0 -90 23 -83 29 8 57 34
57 51 0 7 5 13 10 13 6 0 10 -32 10 -75 0 -43 -4 -75 -10 -75 -5 0 -10 6 -10
13 0 21 -39 57 -60 57 -18 0 -20 -7 -20 -91 l0 -92 36 6 c48 8 81 31 107 75
l22 37 3 -29 c2 -16 1 -44 -3 -63 l-6 -33 -152 1 c-84 1 -144 3 -134 6 15 4
17 22 17 188 0 166 -2 184 -17 188 -10 3 48 5 130 6 l147 1 0 -57z m540 50 c0
-3 -37 -87 -81 -185 -45 -98 -79 -181 -75 -185 3 -3 23 -1 45 6 40 12 101 70
101 96 0 8 5 15 10 15 7 0 9 -21 4 -62 -4 -35 -8 -64 -9 -66 -1 -1 -66 -1
-143 0 l-140 3 84 184 c46 101 84 185 84 187 0 8 -38 4 -70 -7 -21 -8 -42 -28
-61 -57 l-29 -46 0 62 0 62 140 0 c77 0 140 -3 140 -7z m388 0 c-16 -4 -18
-22 -18 -188 0 -166 2 -184 18 -188 9 -3 -23 -5 -73 -5 -49 0 -82 2 -72 5 15
4 17 22 17 188 0 166 -2 184 -17 188 -10 3 23 5 72 5 50 0 82 -2 73 -5z m514
-48 c1 -30 0 -55 -3 -55 -3 0 -13 16 -22 36 -17 35 -65 64 -107 64 -19 0 -20
-6 -20 -84 0 -47 4 -88 10 -91 15 -10 49 14 70 48 l20 32 0 -90 c-1 -88 -1
-89 -16 -60 -19 36 -42 55 -66 55 -16 0 -18 -10 -18 -90 0 -82 2 -90 19 -90
47 0 131 55 131 86 0 7 5 16 10 19 6 4 10 -17 10 -54 l0 -61 -157 1 c-87 1
-150 3 -140 6 15 4 17 22 17 188 0 166 -2 184 -17 188 -10 3 48 5 129 6 l146
1 4 -55z m413 46 l-30 -6 -3 -184 -2 -184 36 6 c42 7 87 45 104 88 18 42 34
36 26 -8 -3 -21 -6 -50 -6 -65 l0 -28 -152 1 c-84 0 -145 4 -135 8 18 7 20 46
17 340 0 20 -6 31 -17 34 -10 3 29 5 87 5 58 0 92 -3 75 -7z m502 2 c-16 -4
-17 -15 -15 -91 l3 -87 53 -3 52 -3 0 90 c0 77 -2 90 -17 94 -10 3 23 5 72 5
50 0 82 -2 73 -5 -16 -4 -18 -22 -18 -188 0 -166 2 -184 18 -188 9 -3 -23 -5
-73 -5 -49 0 -82 2 -72 5 15 4 17 17 17 94 l0 89 -55 0 -55 0 0 -89 c0 -77 2
-90 18 -94 9 -3 -23 -5 -73 -5 -49 0 -82 2 -72 5 15 4 17 22 17 188 0 166 -2
184 -17 188 -10 3 23 5 72 5 50 0 82 -2 72 -5z m1197 -95 c15 -57 32 -121 38
-143 l11 -40 27 115 c14 63 29 127 33 143 7 27 8 27 85 26 42 -1 69 -3 60 -6
-16 -4 -18 -22 -18 -188 0 -166 2 -184 18 -188 9 -3 -23 -5 -73 -5 -49 0 -82
2 -72 5 15 4 17 20 16 176 -1 95 -3 165 -6 157 -2 -8 -21 -87 -41 -175 l-38
-160 -35 -3 -35 -3 -49 176 c-26 96 -50 175 -52 175 -1 0 -3 -76 -3 -169 0
-153 2 -170 18 -174 9 -3 -1 -5 -23 -5 -22 0 -32 2 -22 5 15 4 17 22 17 188 0
166 -2 184 -17 188 -10 3 16 5 58 6 l76 1 27 -102z m728 92 c85 -24 91 -129 9
-162 l-26 -11 32 -8 c62 -18 89 -80 59 -138 -24 -45 -58 -55 -201 -57 -71 -2
-122 0 -112 2 15 5 17 23 17 189 0 166 -2 184 -17 188 -10 3 32 5 92 6 61 0
127 -4 147 -9z m456 3 c-16 -4 -18 -20 -18 -156 0 -170 7 -196 57 -210 43 -13
79 -2 100 30 15 22 19 55 22 175 3 148 3 148 -20 157 -20 8 -17 10 21 9 25 0
37 -2 28 -5 -16 -4 -18 -20 -18 -149 0 -173 -10 -207 -67 -231 -46 -19 -142
-13 -179 12 -44 28 -54 71 -54 224 0 124 -2 140 -17 144 -10 3 23 5 72 5 50 0
82 -2 73 -5z m716 -22 c37 -35 37 -101 0 -130 -15 -12 -34 -21 -43 -21 -9 0
-3 -8 16 -20 33 -20 40 -39 45 -125 3 -45 16 -50 36 -14 13 24 13 23 7 -6 -3
-16 -13 -36 -22 -42 -22 -17 -84 -17 -107 0 -20 15 -35 73 -36 138 0 33 -5 49
-16 53 -41 16 -44 10 -44 -88 0 -82 2 -95 18 -99 9 -3 -26 -5 -78 -4 -52 0
-85 2 -72 4 22 4 22 6 22 188 0 182 0 184 -22 188 -13 3 43 5 124 4 140 -2
148 -3 172 -26z"/>
<path d="M6664 7907 c-3 -8 -4 -28 -2 -44 l3 -28 133 -3 132 -3 0 -1374 0
-1375 -135 0 -135 0 0 -40 0 -40 678 2 677 3 3 37 3 37 -138 3 -138 3 -3 693
-2 694 168 -4 c168 -3 169 -3 211 -32 23 -16 53 -48 66 -70 48 -83 56 -144 65
-546 6 -271 12 -393 23 -440 71 -309 242 -420 649 -420 214 0 326 36 415 134
70 76 119 215 148 419 l7 47 -36 0 c-29 0 -36 -4 -40 -22 -50 -250 -96 -328
-191 -328 -52 0 -74 15 -98 68 -19 43 -21 73 -28 382 -5 238 -12 354 -22 400
-37 161 -94 253 -205 327 -69 46 -216 99 -307 109 -31 4 -58 10 -60 14 -2 4
44 15 103 24 330 50 499 179 568 431 25 93 30 332 10 436 -42 210 -145 330
-351 412 -49 20 -128 43 -175 52 -212 41 -328 46 -1172 52 -727 5 -818 4 -824
-10z m1451 -102 c33 -12 69 -38 106 -74 93 -93 119 -204 119 -502 0 -274 -31
-418 -110 -522 -46 -59 -82 -86 -153 -116 -54 -22 -80 -26 -199 -29 l-138 -4
0 637 0 637 163 -4 c123 -4 174 -9 212 -23z"/>
<path d="M7031 3839 c-11 -35 -21 -67 -21 -71 0 -4 20 -8 45 -8 31 0 45 4 45
13 0 18 -31 110 -40 120 -4 5 -17 -20 -29 -54z"/>
<path d="M1950 3915 c0 -83 0 -85 24 -85 34 0 56 35 56 91 0 51 -21 79 -58 79
-21 0 -22 -4 -22 -85z"/>
<path d="M8290 3915 c0 -78 2 -85 19 -85 30 0 51 39 51 92 0 50 -18 78 -51 78
-17 0 -19 -8 -19 -85z"/>
<path d="M8290 3725 c0 -94 0 -95 24 -95 41 0 56 25 56 94 0 68 -17 96 -58 96
-21 0 -22 -4 -22 -95z"/>
<path d="M9410 3916 c0 -76 2 -86 18 -86 34 0 54 25 58 71 6 56 -12 93 -49 97
l-27 3 0 -85z"/>
</g>
</svg>
